<svg xmlns="http://www.w3.org/2000/svg" version="1.1" xmlns:xlink="http://www.w3.org/1999/xlink" width="48" height="48"><svg width="48" height="48" viewBox="0 0 48 48" fill="none" xmlns="http://www.w3.org/2000/svg">
  <rect width="48" height="48" rx="24" fill="#1E2B3C"/>
  <mask id="mask0_2844_5371" style="mask-type:luminance" maskUnits="userSpaceOnUse" x="11" y="11" width="26" height="26">
    <path d="M37 11H11V37H37V11Z" fill="white"/>
  </mask>
  <g mask="url(#mask0_2844_5371)">
    <path d="M24.3422 11H11.5265C11.3869 11 11.253 11.0554 11.1542 11.1539C11.0555 11.2524 11 11.3861 11 11.5255V36.4746C11 36.6138 11.0555 36.7476 11.1542 36.8461C11.253 36.9447 11.3869 37 11.5265 37H24.3422C27.7315 36.9038 30.9497 35.4925 33.313 33.0661C35.6761 30.6395 36.9983 27.389 36.9983 24.0052C36.9983 20.6214 35.6761 17.371 33.313 14.9445C30.9497 12.518 27.7315 11.1067 24.3422 11.0105V11ZM25.5954 33.0801C23.6563 33.4131 21.6614 33.1215 19.8995 32.2477C18.1375 31.3737 16.7 29.9629 15.7951 28.2193C14.8901 26.4757 14.5648 24.49 14.8661 22.5496C15.1674 20.6092 16.0797 18.8148 17.471 17.4264C18.8623 16.0379 20.6602 15.1274 22.6046 14.8267C24.5489 14.526 26.5387 14.8507 28.2858 15.7539C30.0329 16.6569 31.4467 18.0916 32.3222 19.8499C33.198 21.6083 33.49 23.5992 33.1564 25.5344C32.8316 27.4175 31.9303 29.1541 30.5764 30.5053C29.2224 31.8565 27.4824 32.7559 25.5954 33.0801Z" fill="white"/>
  </g>
</svg><style>@media (prefers-color-scheme: light) { :root { filter: none; } }
@media (prefers-color-scheme: dark) { :root { filter: none; } }
</style></svg>